# xmcd CD database file
#
# Track frame offsets:
#	150
#	24075
#	37430
#	58687
#	71707
#	90425
#	106625
#	129924
#	146644
#	165511
#	184561
#	207122
#	225865
#	244995
#	266795
#	284502
#	307031
#
# Disc length: 4320 seconds
#
# Revision: 1
# Processed by: cddbd v1.4PL0 Copyright (c) Steve Scherf et al.
# Submitted via: CDex 1.51
#
DISCID=ea10de11
DTITLE=Anita Baker - Crossover Series Disc 1
DYEAR=1900
DGENRE=Jazz
TTITLE0=Rapture
TTITLE1=I Just Wanna Hang Around You
TTITLE2=So Much I Love
TTITLE3=Loving You
TTITLE4=Bridges
TTITLE5=Promise Me
TTITLE6=Say You Love Me
TTITLE7=Your Love
TTITLE8=Stay Awake
TTITLE9=Time Will Reveal
TTITLE10=All Behind Us Now
TTITLE11=Somethings A Love Goes Wrong
TTITLE12=I Didn't Know I was Looking For Love
TTITLE13=At Your Best You Are Love
TTITLE14=Never My Love
TTITLE15=The Fight
TTITLE16=In My Life
EXTD=
EXTT0=
EXTT1=
EXTT2=
EXTT3=
EXTT4=
EXTT5=
EXTT6=
EXTT7=
EXTT8=
EXTT9=
EXTT10=
EXTT11=
EXTT12=
EXTT13=
EXTT14=
EXTT15=
EXTT16=
PLAYORDER=
